<mxfile host="app.diagrams.net" agent="Mozilla/5.0 (Windows NT 10.0; Win64; x64; rv:137.0) Gecko/20100101 Firefox/137.0" version="26.1.1" pages="2">
  <diagram name="Option A" id="X2PUkvPEIIKqSoPyBa_s">
    <mxGraphModel dx="755" dy="393" grid="1" gridSize="10" guides="1" tooltips="1" connect="1" arrows="1" fold="1" page="1" pageScale="1" pageWidth="1600" pageHeight="900" math="0" shadow="0">
      <root>
        <mxCell id="0" />
        <mxCell id="1" parent="0" />
        <mxCell id="YcbdGxsAXaUATbjkP4Gg-3" style="edgeStyle=orthogonalEdgeStyle;rounded=0;orthogonalLoop=1;jettySize=auto;html=1;exitX=0.877;exitY=0.995;exitDx=0;exitDy=0;entryX=0.5;entryY=0;entryDx=0;entryDy=0;exitPerimeter=0;" parent="1" source="YcbdGxsAXaUATbjkP4Gg-1" target="YcbdGxsAXaUATbjkP4Gg-2" edge="1">
          <mxGeometry relative="1" as="geometry">
            <Array as="points" />
          </mxGeometry>
        </mxCell>
        <mxCell id="YcbdGxsAXaUATbjkP4Gg-4" value="iadopt:hasProperty" style="edgeLabel;html=1;align=center;verticalAlign=middle;resizable=0;points=[];fontSize=8;" parent="YcbdGxsAXaUATbjkP4Gg-3" vertex="1" connectable="0">
          <mxGeometry x="0.2727" relative="1" as="geometry">
            <mxPoint y="-5" as="offset" />
          </mxGeometry>
        </mxCell>
        <mxCell id="YcbdGxsAXaUATbjkP4Gg-6" style="edgeStyle=orthogonalEdgeStyle;rounded=0;orthogonalLoop=1;jettySize=auto;html=1;exitX=0.467;exitY=0.968;exitDx=0;exitDy=0;entryX=0.5;entryY=0;entryDx=0;entryDy=0;exitPerimeter=0;" parent="1" source="YcbdGxsAXaUATbjkP4Gg-1" target="YcbdGxsAXaUATbjkP4Gg-5" edge="1">
          <mxGeometry relative="1" as="geometry">
            <Array as="points">
              <mxPoint x="460" y="99" />
            </Array>
          </mxGeometry>
        </mxCell>
        <mxCell id="YcbdGxsAXaUATbjkP4Gg-7" value="iadopt:hasMatrix" style="edgeLabel;html=1;align=center;verticalAlign=middle;resizable=0;points=[];fontSize=8;" parent="YcbdGxsAXaUATbjkP4Gg-6" vertex="1" connectable="0">
          <mxGeometry x="0.1111" y="1" relative="1" as="geometry">
            <mxPoint as="offset" />
          </mxGeometry>
        </mxCell>
        <mxCell id="YcbdGxsAXaUATbjkP4Gg-1" value="Flow of X from Source to Sink" style="rounded=0;whiteSpace=wrap;html=1;fillColor=#d5e8d4;strokeColor=#82b366;" parent="1" vertex="1">
          <mxGeometry x="240" y="80" width="480" height="20" as="geometry" />
        </mxCell>
        <mxCell id="YcbdGxsAXaUATbjkP4Gg-2" value="Flux" style="rounded=0;whiteSpace=wrap;html=1;fillColor=#e1d5e7;strokeColor=#9673a6;" parent="1" vertex="1">
          <mxGeometry x="600" y="140" width="120" height="20" as="geometry" />
        </mxCell>
        <mxCell id="YcbdGxsAXaUATbjkP4Gg-10" style="edgeStyle=orthogonalEdgeStyle;rounded=0;orthogonalLoop=1;jettySize=auto;html=1;exitX=0;exitY=0.5;exitDx=0;exitDy=0;entryX=0.5;entryY=0;entryDx=0;entryDy=0;" parent="1" source="YcbdGxsAXaUATbjkP4Gg-5" target="YcbdGxsAXaUATbjkP4Gg-8" edge="1">
          <mxGeometry relative="1" as="geometry">
            <Array as="points">
              <mxPoint x="400" y="150" />
            </Array>
          </mxGeometry>
        </mxCell>
        <mxCell id="YcbdGxsAXaUATbjkP4Gg-12" value="ex:from" style="edgeLabel;html=1;align=center;verticalAlign=middle;resizable=0;points=[];fontSize=8;" parent="YcbdGxsAXaUATbjkP4Gg-10" vertex="1" connectable="0">
          <mxGeometry x="-0.64" relative="1" as="geometry">
            <mxPoint x="-32" y="20" as="offset" />
          </mxGeometry>
        </mxCell>
        <mxCell id="YcbdGxsAXaUATbjkP4Gg-5" value="" style="rounded=0;whiteSpace=wrap;html=1;fillColor=#dae8fc;strokeColor=#6c8ebf;" parent="1" vertex="1">
          <mxGeometry x="450" y="140" width="20" height="20" as="geometry" />
        </mxCell>
        <mxCell id="ae9N6mFBY9E9YACVJ2Q2-1" value="" style="edgeStyle=orthogonalEdgeStyle;rounded=0;orthogonalLoop=1;jettySize=auto;html=1;exitX=1;exitY=0.5;exitDx=0;exitDy=0;entryX=0.5;entryY=0;entryDx=0;entryDy=0;" parent="1" source="YcbdGxsAXaUATbjkP4Gg-5" target="YcbdGxsAXaUATbjkP4Gg-9" edge="1">
          <mxGeometry relative="1" as="geometry">
            <mxPoint x="470" y="200" as="sourcePoint" />
            <mxPoint x="590" y="200" as="targetPoint" />
            <Array as="points">
              <mxPoint x="520" y="150" />
            </Array>
          </mxGeometry>
        </mxCell>
        <mxCell id="0tQ6r630t3Yhee_ARl2I-1" value="&lt;font style=&quot;font-size: 8px;&quot;&gt;ex:to&lt;/font&gt;" style="edgeLabel;html=1;align=center;verticalAlign=middle;resizable=0;points=[];" parent="ae9N6mFBY9E9YACVJ2Q2-1" vertex="1" connectable="0">
          <mxGeometry x="0.4818" relative="1" as="geometry">
            <mxPoint y="-4" as="offset" />
          </mxGeometry>
        </mxCell>
        <mxCell id="YcbdGxsAXaUATbjkP4Gg-8" value="Source" style="rounded=0;whiteSpace=wrap;html=1;fillColor=#dae8fc;strokeColor=#6c8ebf;" parent="1" vertex="1">
          <mxGeometry x="360" y="200" width="80" height="20" as="geometry" />
        </mxCell>
        <mxCell id="YcbdGxsAXaUATbjkP4Gg-9" value="Sink" style="rounded=0;whiteSpace=wrap;html=1;fillColor=#dae8fc;strokeColor=#6c8ebf;" parent="1" vertex="1">
          <mxGeometry x="480" y="200" width="80" height="20" as="geometry" />
        </mxCell>
        <mxCell id="Yq_xOReJiEf8vJfQI29h-1" style="edgeStyle=orthogonalEdgeStyle;rounded=0;orthogonalLoop=1;jettySize=auto;html=1;exitX=0.108;exitY=0.95;exitDx=0;exitDy=0;entryX=0.5;entryY=0;entryDx=0;entryDy=0;exitPerimeter=0;" edge="1" parent="1" target="Yq_xOReJiEf8vJfQI29h-3">
          <mxGeometry relative="1" as="geometry">
            <Array as="points">
              <mxPoint x="279" y="100" />
              <mxPoint x="280" y="100" />
            </Array>
            <mxPoint x="340" y="140" as="targetPoint" />
            <mxPoint x="279" y="99" as="sourcePoint" />
          </mxGeometry>
        </mxCell>
        <mxCell id="Yq_xOReJiEf8vJfQI29h-2" value="iadopt:hasObjectOfInterest" style="edgeLabel;html=1;align=center;verticalAlign=middle;resizable=0;points=[];fontSize=8;" vertex="1" connectable="0" parent="Yq_xOReJiEf8vJfQI29h-1">
          <mxGeometry x="0.1111" y="1" relative="1" as="geometry">
            <mxPoint x="-1" as="offset" />
          </mxGeometry>
        </mxCell>
        <mxCell id="Yq_xOReJiEf8vJfQI29h-3" value="X" style="rounded=0;whiteSpace=wrap;html=1;fillColor=#dae8fc;strokeColor=#6c8ebf;" vertex="1" parent="1">
          <mxGeometry x="240" y="140" width="80" height="20" as="geometry" />
        </mxCell>
      </root>
    </mxGraphModel>
  </diagram>
  <diagram name="Option B" id="yLIgW7Km7_Jru6xE_IwP">
    <mxGraphModel dx="1147" dy="598" grid="1" gridSize="10" guides="1" tooltips="1" connect="1" arrows="1" fold="1" page="1" pageScale="1" pageWidth="1600" pageHeight="900" math="0" shadow="0">
      <root>
        <mxCell id="yHjvTrXEEeXIkdAx6fGz-0" />
        <mxCell id="yHjvTrXEEeXIkdAx6fGz-1" parent="yHjvTrXEEeXIkdAx6fGz-0" />
        <mxCell id="yHjvTrXEEeXIkdAx6fGz-2" style="edgeStyle=orthogonalEdgeStyle;rounded=0;orthogonalLoop=1;jettySize=auto;html=1;exitX=0.877;exitY=0.995;exitDx=0;exitDy=0;entryX=0.5;entryY=0;entryDx=0;entryDy=0;exitPerimeter=0;" edge="1" parent="yHjvTrXEEeXIkdAx6fGz-1" source="yHjvTrXEEeXIkdAx6fGz-6" target="yHjvTrXEEeXIkdAx6fGz-7">
          <mxGeometry relative="1" as="geometry">
            <Array as="points" />
          </mxGeometry>
        </mxCell>
        <mxCell id="yHjvTrXEEeXIkdAx6fGz-3" value="iadopt:hasProperty" style="edgeLabel;html=1;align=center;verticalAlign=middle;resizable=0;points=[];fontSize=8;" vertex="1" connectable="0" parent="yHjvTrXEEeXIkdAx6fGz-2">
          <mxGeometry x="0.2727" relative="1" as="geometry">
            <mxPoint y="-5" as="offset" />
          </mxGeometry>
        </mxCell>
        <mxCell id="yHjvTrXEEeXIkdAx6fGz-4" style="edgeStyle=orthogonalEdgeStyle;rounded=0;orthogonalLoop=1;jettySize=auto;html=1;exitX=0.467;exitY=0.968;exitDx=0;exitDy=0;entryX=0.5;entryY=0;entryDx=0;entryDy=0;exitPerimeter=0;" edge="1" parent="yHjvTrXEEeXIkdAx6fGz-1" source="yHjvTrXEEeXIkdAx6fGz-6" target="yHjvTrXEEeXIkdAx6fGz-10">
          <mxGeometry relative="1" as="geometry">
            <Array as="points">
              <mxPoint x="460" y="99" />
            </Array>
          </mxGeometry>
        </mxCell>
        <mxCell id="yHjvTrXEEeXIkdAx6fGz-5" value="iadopt:hasMatrix" style="edgeLabel;html=1;align=center;verticalAlign=middle;resizable=0;points=[];fontSize=8;" vertex="1" connectable="0" parent="yHjvTrXEEeXIkdAx6fGz-4">
          <mxGeometry x="0.1111" y="1" relative="1" as="geometry">
            <mxPoint as="offset" />
          </mxGeometry>
        </mxCell>
        <mxCell id="yHjvTrXEEeXIkdAx6fGz-6" value="mass flux of carbon into soil from vegetation" style="rounded=0;whiteSpace=wrap;html=1;fillColor=#d5e8d4;strokeColor=#82b366;" vertex="1" parent="yHjvTrXEEeXIkdAx6fGz-1">
          <mxGeometry x="240" y="80" width="480" height="20" as="geometry" />
        </mxCell>
        <mxCell id="yHjvTrXEEeXIkdAx6fGz-7" value="Mass Flux" style="rounded=0;whiteSpace=wrap;html=1;fillColor=#e1d5e7;strokeColor=#9673a6;" vertex="1" parent="yHjvTrXEEeXIkdAx6fGz-1">
          <mxGeometry x="600" y="140" width="120" height="20" as="geometry" />
        </mxCell>
        <mxCell id="yHjvTrXEEeXIkdAx6fGz-8" style="edgeStyle=orthogonalEdgeStyle;rounded=0;orthogonalLoop=1;jettySize=auto;html=1;exitX=0;exitY=0.5;exitDx=0;exitDy=0;entryX=0.5;entryY=0;entryDx=0;entryDy=0;" edge="1" parent="yHjvTrXEEeXIkdAx6fGz-1" source="yHjvTrXEEeXIkdAx6fGz-10" target="yHjvTrXEEeXIkdAx6fGz-13">
          <mxGeometry relative="1" as="geometry">
            <Array as="points">
              <mxPoint x="400" y="150" />
            </Array>
          </mxGeometry>
        </mxCell>
        <mxCell id="yHjvTrXEEeXIkdAx6fGz-9" value="ex:from" style="edgeLabel;html=1;align=center;verticalAlign=middle;resizable=0;points=[];fontSize=8;" vertex="1" connectable="0" parent="yHjvTrXEEeXIkdAx6fGz-8">
          <mxGeometry x="-0.64" relative="1" as="geometry">
            <mxPoint x="-32" y="20" as="offset" />
          </mxGeometry>
        </mxCell>
        <mxCell id="yHjvTrXEEeXIkdAx6fGz-10" value="" style="rounded=0;whiteSpace=wrap;html=1;fillColor=#dae8fc;strokeColor=#6c8ebf;" vertex="1" parent="yHjvTrXEEeXIkdAx6fGz-1">
          <mxGeometry x="450" y="140" width="20" height="20" as="geometry" />
        </mxCell>
        <mxCell id="yHjvTrXEEeXIkdAx6fGz-11" value="" style="edgeStyle=orthogonalEdgeStyle;rounded=0;orthogonalLoop=1;jettySize=auto;html=1;exitX=1;exitY=0.5;exitDx=0;exitDy=0;entryX=0.5;entryY=0;entryDx=0;entryDy=0;" edge="1" parent="yHjvTrXEEeXIkdAx6fGz-1" source="yHjvTrXEEeXIkdAx6fGz-10" target="yHjvTrXEEeXIkdAx6fGz-14">
          <mxGeometry relative="1" as="geometry">
            <mxPoint x="470" y="200" as="sourcePoint" />
            <mxPoint x="590" y="200" as="targetPoint" />
            <Array as="points">
              <mxPoint x="520" y="150" />
            </Array>
          </mxGeometry>
        </mxCell>
        <mxCell id="yHjvTrXEEeXIkdAx6fGz-12" value="&lt;font style=&quot;font-size: 8px;&quot;&gt;ex:to&lt;/font&gt;" style="edgeLabel;html=1;align=center;verticalAlign=middle;resizable=0;points=[];" vertex="1" connectable="0" parent="yHjvTrXEEeXIkdAx6fGz-11">
          <mxGeometry x="0.4818" relative="1" as="geometry">
            <mxPoint y="-4" as="offset" />
          </mxGeometry>
        </mxCell>
        <mxCell id="yHjvTrXEEeXIkdAx6fGz-13" value="Vegetation" style="rounded=0;whiteSpace=wrap;html=1;fillColor=#dae8fc;strokeColor=#6c8ebf;" vertex="1" parent="yHjvTrXEEeXIkdAx6fGz-1">
          <mxGeometry x="360" y="200" width="80" height="20" as="geometry" />
        </mxCell>
        <mxCell id="yHjvTrXEEeXIkdAx6fGz-14" value="Soil" style="rounded=0;whiteSpace=wrap;html=1;fillColor=#dae8fc;strokeColor=#6c8ebf;" vertex="1" parent="yHjvTrXEEeXIkdAx6fGz-1">
          <mxGeometry x="480" y="200" width="80" height="20" as="geometry" />
        </mxCell>
        <mxCell id="yHjvTrXEEeXIkdAx6fGz-15" style="edgeStyle=orthogonalEdgeStyle;rounded=0;orthogonalLoop=1;jettySize=auto;html=1;exitX=0.108;exitY=0.95;exitDx=0;exitDy=0;entryX=0.5;entryY=0;entryDx=0;entryDy=0;exitPerimeter=0;" edge="1" parent="yHjvTrXEEeXIkdAx6fGz-1" target="yHjvTrXEEeXIkdAx6fGz-17">
          <mxGeometry relative="1" as="geometry">
            <Array as="points">
              <mxPoint x="279" y="100" />
              <mxPoint x="280" y="100" />
            </Array>
            <mxPoint x="340" y="140" as="targetPoint" />
            <mxPoint x="279" y="99" as="sourcePoint" />
          </mxGeometry>
        </mxCell>
        <mxCell id="yHjvTrXEEeXIkdAx6fGz-16" value="iadopt:hasObjectOfInterest" style="edgeLabel;html=1;align=center;verticalAlign=middle;resizable=0;points=[];fontSize=8;" vertex="1" connectable="0" parent="yHjvTrXEEeXIkdAx6fGz-15">
          <mxGeometry x="0.1111" y="1" relative="1" as="geometry">
            <mxPoint x="-1" as="offset" />
          </mxGeometry>
        </mxCell>
        <mxCell id="yHjvTrXEEeXIkdAx6fGz-17" value="Carbon" style="rounded=0;whiteSpace=wrap;html=1;fillColor=#dae8fc;strokeColor=#6c8ebf;" vertex="1" parent="yHjvTrXEEeXIkdAx6fGz-1">
          <mxGeometry x="240" y="140" width="80" height="20" as="geometry" />
        </mxCell>
        <mxCell id="q3KuJmHlwf91aTnakkEX-0" style="edgeStyle=orthogonalEdgeStyle;rounded=0;orthogonalLoop=1;jettySize=auto;html=1;exitX=0.83;exitY=1.005;exitDx=0;exitDy=0;entryX=0.5;entryY=0;entryDx=0;entryDy=0;exitPerimeter=0;" edge="1" parent="yHjvTrXEEeXIkdAx6fGz-1" source="q3KuJmHlwf91aTnakkEX-4" target="q3KuJmHlwf91aTnakkEX-5">
          <mxGeometry relative="1" as="geometry">
            <Array as="points" />
          </mxGeometry>
        </mxCell>
        <mxCell id="q3KuJmHlwf91aTnakkEX-1" value="iadopt:hasProperty" style="edgeLabel;html=1;align=center;verticalAlign=middle;resizable=0;points=[];fontSize=8;" vertex="1" connectable="0" parent="q3KuJmHlwf91aTnakkEX-0">
          <mxGeometry x="0.2727" relative="1" as="geometry">
            <mxPoint y="-5" as="offset" />
          </mxGeometry>
        </mxCell>
        <mxCell id="q3KuJmHlwf91aTnakkEX-2" style="edgeStyle=orthogonalEdgeStyle;rounded=0;orthogonalLoop=1;jettySize=auto;html=1;exitX=0.276;exitY=0.862;exitDx=0;exitDy=0;entryX=0.5;entryY=0;entryDx=0;entryDy=0;exitPerimeter=0;" edge="1" parent="yHjvTrXEEeXIkdAx6fGz-1" source="q3KuJmHlwf91aTnakkEX-4" target="q3KuJmHlwf91aTnakkEX-8">
          <mxGeometry relative="1" as="geometry">
            <Array as="points">
              <mxPoint x="899" y="99" />
              <mxPoint x="900" y="99" />
            </Array>
          </mxGeometry>
        </mxCell>
        <mxCell id="q3KuJmHlwf91aTnakkEX-3" value="iadopt:hasObjectOfInterest" style="edgeLabel;html=1;align=center;verticalAlign=middle;resizable=0;points=[];fontSize=8;" vertex="1" connectable="0" parent="q3KuJmHlwf91aTnakkEX-2">
          <mxGeometry x="0.1111" y="1" relative="1" as="geometry">
            <mxPoint as="offset" />
          </mxGeometry>
        </mxCell>
        <mxCell id="q3KuJmHlwf91aTnakkEX-4" value="Energy Flux from Sun to Earth" style="rounded=0;whiteSpace=wrap;html=1;fillColor=#d5e8d4;strokeColor=#82b366;" vertex="1" parent="yHjvTrXEEeXIkdAx6fGz-1">
          <mxGeometry x="800" y="80" width="360" height="20" as="geometry" />
        </mxCell>
        <mxCell id="q3KuJmHlwf91aTnakkEX-5" value="Energy Flux" style="rounded=0;whiteSpace=wrap;html=1;fillColor=#e1d5e7;strokeColor=#9673a6;" vertex="1" parent="yHjvTrXEEeXIkdAx6fGz-1">
          <mxGeometry x="1040" y="140" width="120" height="20" as="geometry" />
        </mxCell>
        <mxCell id="q3KuJmHlwf91aTnakkEX-6" style="edgeStyle=orthogonalEdgeStyle;rounded=0;orthogonalLoop=1;jettySize=auto;html=1;exitX=0;exitY=0.5;exitDx=0;exitDy=0;entryX=0.5;entryY=0;entryDx=0;entryDy=0;" edge="1" parent="yHjvTrXEEeXIkdAx6fGz-1" source="q3KuJmHlwf91aTnakkEX-8" target="q3KuJmHlwf91aTnakkEX-11">
          <mxGeometry relative="1" as="geometry">
            <Array as="points">
              <mxPoint x="840" y="150" />
            </Array>
          </mxGeometry>
        </mxCell>
        <mxCell id="q3KuJmHlwf91aTnakkEX-7" value="ex:from" style="edgeLabel;html=1;align=center;verticalAlign=middle;resizable=0;points=[];fontSize=8;" vertex="1" connectable="0" parent="q3KuJmHlwf91aTnakkEX-6">
          <mxGeometry x="-0.64" relative="1" as="geometry">
            <mxPoint x="-32" y="20" as="offset" />
          </mxGeometry>
        </mxCell>
        <mxCell id="q3KuJmHlwf91aTnakkEX-8" value="" style="rounded=0;whiteSpace=wrap;html=1;fillColor=#dae8fc;strokeColor=#6c8ebf;" vertex="1" parent="yHjvTrXEEeXIkdAx6fGz-1">
          <mxGeometry x="890" y="140" width="20" height="20" as="geometry" />
        </mxCell>
        <mxCell id="q3KuJmHlwf91aTnakkEX-9" value="" style="edgeStyle=orthogonalEdgeStyle;rounded=0;orthogonalLoop=1;jettySize=auto;html=1;exitX=1;exitY=0.5;exitDx=0;exitDy=0;entryX=0.5;entryY=0;entryDx=0;entryDy=0;" edge="1" parent="yHjvTrXEEeXIkdAx6fGz-1" source="q3KuJmHlwf91aTnakkEX-8" target="q3KuJmHlwf91aTnakkEX-12">
          <mxGeometry relative="1" as="geometry">
            <mxPoint x="910" y="200" as="sourcePoint" />
            <mxPoint x="1030" y="200" as="targetPoint" />
            <Array as="points">
              <mxPoint x="960" y="150" />
            </Array>
          </mxGeometry>
        </mxCell>
        <mxCell id="q3KuJmHlwf91aTnakkEX-10" value="&lt;font style=&quot;font-size: 8px;&quot;&gt;ex:to&lt;/font&gt;" style="edgeLabel;html=1;align=center;verticalAlign=middle;resizable=0;points=[];" vertex="1" connectable="0" parent="q3KuJmHlwf91aTnakkEX-9">
          <mxGeometry x="0.4818" relative="1" as="geometry">
            <mxPoint y="-4" as="offset" />
          </mxGeometry>
        </mxCell>
        <mxCell id="q3KuJmHlwf91aTnakkEX-11" value="Sun" style="rounded=0;whiteSpace=wrap;html=1;fillColor=#dae8fc;strokeColor=#6c8ebf;" vertex="1" parent="yHjvTrXEEeXIkdAx6fGz-1">
          <mxGeometry x="800" y="200" width="80" height="20" as="geometry" />
        </mxCell>
        <mxCell id="q3KuJmHlwf91aTnakkEX-12" value="Earth" style="rounded=0;whiteSpace=wrap;html=1;fillColor=#dae8fc;strokeColor=#6c8ebf;" vertex="1" parent="yHjvTrXEEeXIkdAx6fGz-1">
          <mxGeometry x="920" y="200" width="80" height="20" as="geometry" />
        </mxCell>
      </root>
    </mxGraphModel>
  </diagram>
</mxfile>
